<svg width="48" height="47" viewBox="0 0 48 47" fill="none" xmlns="http://www.w3.org/2000/svg">
<g clip-path="url(#clip0)" filter="url(#filter0_d)">
<path fill-rule="evenodd" clip-rule="evenodd" d="M39.6698 22.6862V26.8679L21.6316 37.2586L5.78269 27.008C2.68404 25.0038 1.82188 20.9777 5.01315 19.139L8.25132 17.2739C7.44867 15.4082 7.83024 13.3348 9.87326 12.1577L27.5067 2L44.5299 12.8589V19.8864L39.6698 22.6862L39.6698 22.6862ZM21.7113 32.9319L5.87952 22.7301C4.09789 21.5818 4.39306 24.1708 6.14864 25.2903L21.7005 35.2105L38.0183 25.8645V23.6374L21.7113 32.9318L21.7113 32.9319ZM26.6102 24.3177L42.8784 15.424V18.8832L26.5606 28.2293L11.0086 18.3091C9.25317 17.1892 9.3626 13.2427 11.1815 14.3346L26.6102 24.3178L26.6102 24.3177Z" fill="white"/>
</g>
<defs>
<filter id="filter0_d" x="0" y="0" width="47.53" height="50.0732" filterUnits="userSpaceOnUse" color-interpolation-filters="sRGB">
<feFlood flood-opacity="0" result="BackgroundImageFix"/>
<feColorMatrix in="SourceAlpha" type="matrix" values="0 0 0 0 0 0 0 0 0 0 0 0 0 0 0 0 0 0 127 0" result="hardAlpha"/>
<feOffset dy="1"/>
<feGaussianBlur stdDeviation="1.5"/>
<feComposite in2="hardAlpha" operator="out"/>
<feColorMatrix type="matrix" values="0 0 0 0 0 0 0 0 0 0 0 0 0 0 0 0 0 0 0.25 0"/>
<feBlend mode="normal" in2="BackgroundImageFix" result="effect1_dropShadow"/>
<feBlend mode="normal" in="SourceGraphic" in2="effect1_dropShadow" result="shape"/>
</filter>
<clipPath id="clip0">
<rect width="41.53" height="44.0732" fill="white" transform="translate(3 2)"/>
</clipPath>
</defs>
</svg>