<svg xmlns="http://www.w3.org/2000/svg" xmlns:xlink="http://www.w3.org/1999/xlink" version="1.2" baseProfile="tiny" x="0px" y="0px" viewBox="0 0 100 125" xml:space="preserve"><path d="M42.5,10C24.579,10,10,24.58,10,42.5S24.579,75,42.5,75c6.249,0,12.088-1.777,17.048-4.845l17.648,17.649   C78.613,89.22,80.497,90,82.5,90s3.886-0.78,5.303-2.196S90,84.503,90,82.5s-0.78-3.887-2.197-5.303L70.154,59.548   C73.223,54.588,75,48.749,75,42.5C75,24.58,60.421,10,42.5,10z M42.5,65C30.094,65,20,54.907,20,42.5S30.094,20,42.5,20   S65,30.093,65,42.5S54.906,65,42.5,65z"/><path d="M25,42.5h5C30,35.607,35.607,30,42.5,30v-5C32.851,25,25,32.851,25,42.5z"/><text x="0" y="115" fill="#000000" font-size="5px" font-weight="bold" font-family="'Helvetica Neue', Helvetica, Arial-Unicode, Arial, Sans-serif">Created by Arthur Shlain</text><text x="0" y="120" fill="#000000" font-size="5px" font-weight="bold" font-family="'Helvetica Neue', Helvetica, Arial-Unicode, Arial, Sans-serif">from the Noun Project</text></svg>