<svg xmlns="http://www.w3.org/2000/svg" xmlns:xlink="http://www.w3.org/1999/xlink" version="1.1" x="0px" y="0px" viewBox="0 0 100 125" enable-background="new 0 0 100 100" xml:space="preserve"><path d="M82.108,21.547c-3.965-3.965-9.226-6.14-14.822-6.14s-10.857,2.175-14.806,6.14l-1.903,1.903  c-0.32,0.304-0.831,0.304-1.135,0l-1.903-1.903c-3.949-3.965-9.21-6.14-14.822-6.14c-5.596,0-10.857,2.175-14.806,6.14  c-3.965,3.949-6.14,9.21-6.14,14.806s2.175,10.873,6.14,14.822L50,83.282l32.107-32.107c3.949-3.949,6.124-9.21,6.124-14.822  C88.232,30.757,86.057,25.496,82.108,21.547z M84.362,19.276c-4.557-4.557-10.633-7.067-17.077-7.067  c-6.284,0-12.216,2.382-16.725,6.731c-0.32,0.304-0.799,0.304-1.119,0c-4.509-4.333-10.457-6.731-16.725-6.731  c-6.46,0-12.52,2.51-17.077,7.067S8.571,29.893,8.571,36.353s2.51,12.52,7.067,17.077L50,87.791L84.362,53.43  c4.557-4.557,7.067-10.617,7.067-17.077S88.919,23.833,84.362,19.276z M83.243,52.31L50.576,84.977  c-0.16,0.144-0.368,0.224-0.576,0.224s-0.416-0.08-0.56-0.224L16.775,52.31c-8.794-8.794-8.794-23.105,0-31.899  c4.253-4.253,9.913-6.604,15.942-6.604s11.688,2.35,15.941,6.604L50,21.755l1.343-1.343c4.253-4.253,9.913-6.604,15.941-6.604  s11.688,2.35,15.957,6.604c2.127,2.127,3.774,4.605,4.893,7.307c1.103,2.702,1.695,5.628,1.695,8.634  C89.831,42.381,87.496,48.041,83.243,52.31z"/><text x="0" y="115" fill="#000000" font-size="5px" font-weight="bold" font-family="'Helvetica Neue', Helvetica, Arial-Unicode, Arial, Sans-serif">Created by MUHAMMAD WAHID SAPUTRA</text><text x="0" y="120" fill="#000000" font-size="5px" font-weight="bold" font-family="'Helvetica Neue', Helvetica, Arial-Unicode, Arial, Sans-serif">from the Noun Project</text></svg>