<svg xmlns="http://www.w3.org/2000/svg" xmlns:xlink="http://www.w3.org/1999/xlink" version="1.1" x="0px" y="0px" viewBox="0 0 32 40" enable-background="new 0 0 32 32" xml:space="preserve"><path d="M26.109,11.342V6.868h0.133c0.158,0,0.287-0.128,0.287-0.287V5.483c0-0.158-0.129-0.287-0.287-0.287h-0.133h-4.176h-0.132  c-0.157,0-0.286,0.128-0.286,0.287v1.098c0,0.158,0.129,0.287,0.286,0.287h0.132v0.575l-5.043-4.708  c-0.479-0.445-1.217-0.446-1.695-0.003L2.184,14.801c-0.232,0.216-0.246,0.579-0.03,0.811l0.911,0.982  c0.215,0.232,0.578,0.246,0.811,0.03L16.038,5.342l12.083,11.279c0.23,0.216,0.594,0.204,0.811-0.028l0.914-0.979  c0.217-0.231,0.203-0.594-0.027-0.812L26.109,11.342z"/><path d="M16.041,6.618L5.914,16.011c-0.023,0.022-0.029,9.169-0.029,12.441c0,0.634,0.514,1.147,1.148,1.147h17.934  c0.635,0,1.148-0.515,1.148-1.147v-12.43L16.104,6.675L16.041,6.618z M15.988,25.919c-9.033-5.319-3.789-11.785,0.02-7.55  C19.834,14.151,25.049,20.645,15.988,25.919z"/><text x="0" y="47" fill="#000000" font-size="5px" font-weight="bold" font-family="'Helvetica Neue', Helvetica, Arial-Unicode, Arial, Sans-serif">Created by Milinda Courey</text><text x="0" y="52" fill="#000000" font-size="5px" font-weight="bold" font-family="'Helvetica Neue', Helvetica, Arial-Unicode, Arial, Sans-serif">from the Noun Project</text></svg>