<svg xmlns="http://www.w3.org/2000/svg" xmlns:xlink="http://www.w3.org/1999/xlink" version="1.1" x="0px" y="0px" viewBox="0 0 49 61.25" enable-background="new 0 0 49 49" xml:space="preserve"><path fill-rule="evenodd" clip-rule="evenodd" d="M16.115,27.328c-0.562,0-1.016,0.453-1.016,1.016c0,0.562,0.453,1.016,1.016,1.016  h8.807c0.562-0.782,1.249-1.466,2.031-2.031H16.115z M16.115,19.541c-0.562,0-1.016,0.454-1.016,1.016s0.453,1.016,1.016,1.016  h13.204c0.562,0,1.016-0.454,1.016-1.016s-0.454-1.016-1.016-1.016H16.115z M16.115,11.754c-0.562,0-1.016,0.454-1.016,1.016  c0,0.562,0.453,1.016,1.016,1.016h6.771c0.562,0,1.016-0.454,1.016-1.016c0-0.562-0.453-1.016-1.016-1.016H16.115z M27.159,5.027  v4.398c0,1.442,2.12,3.216,3.474,3.304c0.17,0,0.42,0.082,0.59,0.169h3.514v13.1c0.718,0.213,1.402,0.514,2.031,0.886l0.007-16.748  l-7.123-7.167L12.476,2.996c-1.692,0-3.724,2.285-3.809,3.893v27.339c0,1.439,2.37,3.979,3.724,3.894h11.549  c-0.274-0.64-0.475-1.32-0.592-2.031H12.645c-0.761,0-1.946-1.354-1.946-2.116V7.143c-0.084-0.846,1.27-2.285,2.116-2.116H27.159z   M34.736,10.867h-3.257c-0.888,0.067-2.269-1.009-2.288-1.862V5.386l5.545,5.228V10.867z M36.646,40.749l4.831,4.831  c0.389,0.39,1.012,0.402,1.385,0.03c0.372-0.372,0.358-0.995-0.031-1.385l-4.79-4.791c1.1-1.323,1.773-3.029,1.773-4.912  c0-3.979-3.386-7.533-7.617-7.533c-4.316,0-7.617,3.555-7.617,7.618c0,4.062,3.301,7.617,7.617,7.617  C33.826,42.225,35.376,41.68,36.646,40.749z M37.783,34.607c0,3.131-2.708,5.586-5.586,5.586c-3.217,0-5.586-2.709-5.586-5.586  c0-2.963,2.369-5.587,5.586-5.587C35.329,29.021,37.783,31.645,37.783,34.607z"/><text x="0" y="64" fill="#000000" font-size="5px" font-weight="bold" font-family="'Helvetica Neue', Helvetica, Arial-Unicode, Arial, Sans-serif">Created by Hakan Yalcin</text><text x="0" y="69" fill="#000000" font-size="5px" font-weight="bold" font-family="'Helvetica Neue', Helvetica, Arial-Unicode, Arial, Sans-serif">from the Noun Project</text></svg>