<svg xmlns="http://www.w3.org/2000/svg" xmlns:xlink="http://www.w3.org/1999/xlink" xml:space="preserve" style="shape-rendering:geometricPrecision;text-rendering:geometricPrecision;image-rendering:optimizeQuality;" viewBox="0 0 0.972693 1.03225875" x="0px" y="0px" fill-rule="evenodd" clip-rule="evenodd"><defs><style type="text/css">
  </style></defs><g><path class="fil0" d="M0.858862 0.4845l0 0.0979409 -0.42248 0.243366 -0.371205 -0.240083c-0.0725748,-0.0469409 -0.0927677,-0.14124 -0.0180236,-0.184303l0.0758425 -0.043685c-0.0187992,-0.0436969 -0.0098622,-0.0922598 0.0379882,-0.119827l0.413 -0.237909 0.398709 0.254331 0 0.164594 -0.113831 0.0655748zm-0.420614 0.239969l-0.370803 -0.238941c-0.0417283,-0.0268937 -0.034815,0.0337441 0.00630315,0.0599646l0.364248 0.232346 0.382185 -0.218898 0 -0.0521614 -0.381933 0.217689zm0.11474 -0.201756l0.381024 -0.208303 0 0.0810197 -0.382185 0.218898 -0.364252 -0.232346c-0.0411142,-0.0262283 -0.0385512,-0.118661 0.00405118,-0.0930866l0.361362 0.233819z"/></g><text x="0" y="15.825807" fill="#000000" font-size="5px" font-weight="bold" font-family="'Helvetica Neue', Helvetica, Arial-Unicode, Arial, Sans-serif">Created by Mr Balind</text><text x="0" y="20.825806999999998" fill="#000000" font-size="5px" font-weight="bold" font-family="'Helvetica Neue', Helvetica, Arial-Unicode, Arial, Sans-serif">from the Noun Project</text></svg>