<svg xmlns="http://www.w3.org/2000/svg" viewBox="0 0 24 30" x="0px" y="0px"><title>pencil</title><path d="M.75,24A.75.75,0,0,1,0,23.07l1.41-5.65a.75.75,0,0,1,.2-.35L17.48,1.22a2.75,2.75,0,0,1,3.89,0l1.41,1.41a2.75,2.75,0,0,1,0,3.89L6.93,22.37a.75.75,0,0,1-.35.2L.93,24Zm2.09-6L1.78,22.22,6,21.16l15.7-15.7a1.25,1.25,0,0,0,0-1.77L20.31,2.28a1.25,1.25,0,0,0-1.77,0ZM6.4,21.84h0Z"/><path d="M19.81,9.18A.75.75,0,0,1,19.28,9L15,4.72A.75.75,0,0,1,16.1,3.66L20.34,7.9a.75.75,0,0,1-.53,1.28Z"/><path d="M6.4,22.59a.75.75,0,0,1-.53-.22L1.63,18.13a.75.75,0,0,1,1.06-1.06l4.24,4.24a.75.75,0,0,1-.53,1.28Z"/><text x="0" y="39" fill="#000000" font-size="5px" font-weight="bold" font-family="'Helvetica Neue', Helvetica, Arial-Unicode, Arial, Sans-serif">Created by Sudarto Wasmad</text><text x="0" y="44" fill="#000000" font-size="5px" font-weight="bold" font-family="'Helvetica Neue', Helvetica, Arial-Unicode, Arial, Sans-serif">from the Noun Project</text></svg>