<svg width="49" height="79" viewBox="0 0 49 79" fill="none" xmlns="http://www.w3.org/2000/svg">
<path d="M14.9538 36.2981C15.2 36.0497 15.3846 35.677 15.3846 35.3665C15.3846 34.6211 14.7692 34 14.0308 34C13.2923 34 12.6769 34.6211 12.6769 35.3665C12.6769 35.7391 12.8 36.0497 13.1077 36.2981C13.2923 36.4845 13.3538 36.6708 13.2923 36.9193L12 44H16L14.7077 36.9193C14.7077 36.6708 14.8308 36.4224 14.9538 36.2981Z" fill="black"/>
<path d="M13.2123 32.4474V26.7108L11.78 26.2246C10.8754 28.3637 10.3477 30.6 10.1216 33.0308C10.0462 33.9058 10.3477 34.8782 10.9508 35.3643C11.2523 33.9058 12.1569 32.8363 13.2123 32.4474Z" fill="black"/>
<path d="M38 25.5L26 30C26.0724 30 25.9276 30 26 30L24.5 30.5L15 27.1393V31.784C16.3754 32.2222 17.3889 33.7121 17.3889 35.4648C17.3889 36.0782 17.2442 36.6917 17.027 37.2175C19.995 38.5321 22.5288 39.4085 24.8453 39.9343C25.0625 40.0219 25.2797 40.0219 25.4968 39.9343C29.5508 39.0579 33.005 37.2167 38 34.5C38.7239 34.0618 38.6448 33.5516 38.5 32.5C38.5 29.5 38.5 28 38 25.5Z" fill="black"/>
<path d="M26.0831 20.0991C26.0831 19.8074 25.48 19.1268 24.5 19.1268C23.52 19.1268 22.9169 19.7102 22.9169 20.0991C22.9169 20.3908 23.52 21.0714 24.5 21.0714C25.48 21.0714 26.0831 20.3908 26.0831 20.0991Z" fill="black"/>
<path d="M14.0187 24.3043L21.6109 20.0978V20C21.6109 18.2391 22.8875 16.8696 24.5 16.8696C26.1125 16.8696 27.3891 18.2391 27.3891 20C27.3891 21.7609 26.1125 23.1304 24.5 23.1304C23.6266 23.1304 22.8203 22.7391 22.35 22.0543L16.1016 25.4783L24.5 29L36.8625 23.8152L46 20L24.5 11L3 20L13.8172 24.5C13.8844 24.4022 13.9516 24.3043 14.0187 24.3043Z" fill="black"/>
</svg>
