<svg xmlns:dc="http://purl.org/dc/elements/1.1/" xmlns:cc="http://creativecommons.org/ns#" xmlns:rdf="http://www.w3.org/1999/02/22-rdf-syntax-ns#" xmlns:svg="http://www.w3.org/2000/svg" xmlns="http://www.w3.org/2000/svg" xmlns:sodipodi="http://sodipodi.sourceforge.net/DTD/sodipodi-0.dtd" xmlns:inkscape="http://www.inkscape.org/namespaces/inkscape" viewBox="0 0 26.458333 33.0729175" version="1.1" x="0px" y="0px"><g transform="translate(0,-270.54165)"><path style="color:#000000;font-style:normal;font-variant:normal;font-weight:normal;font-stretch:normal;font-size:medium;line-height:normal;font-family:sans-serif;font-variant-ligatures:normal;font-variant-position:normal;font-variant-caps:normal;font-variant-numeric:normal;font-variant-alternates:normal;font-feature-settings:normal;text-indent:0;text-align:start;text-decoration:none;text-decoration-line:none;text-decoration-style:solid;text-decoration-color:#000000;letter-spacing:normal;word-spacing:normal;text-transform:none;writing-mode:lr-tb;direction:ltr;text-orientation:mixed;dominant-baseline:auto;baseline-shift:baseline;text-anchor:start;white-space:normal;shape-padding:0;clip-rule:nonzero;display:inline;overflow:visible;visibility:visible;opacity:1;isolation:auto;mix-blend-mode:normal;color-interpolation:sRGB;color-interpolation-filters:linearRGB;solid-color:#000000;solid-opacity:1;vector-effect:none;fill:#000000;fill-opacity:1;fill-rule:nonzero;stroke:none;stroke-width:1.0583334;stroke-linecap:round;stroke-linejoin:round;stroke-miterlimit:4;stroke-dasharray:none;stroke-dashoffset:0;stroke-opacity:1;color-rendering:auto;image-rendering:auto;shape-rendering:auto;text-rendering:auto;enable-background:accumulate" d="m 2.8793559,272.12915 c -0.2750851,3e-5 -0.4980787,0.22237 -0.4981062,0.49664 v 20.85833 c -2.413e-4,0.27447 0.222831,0.49711 0.4981062,0.49714 H 13.54097 c 0.664466,0 0.664466,-0.99377 0,-0.99377 H 3.3779486 v -19.86506 h 9.7899284 v 5.21519 c 2.7e-5,0.27428 0.223021,0.49661 0.498106,0.49664 h 5.15326 v 4.9659 c -0.01508,0.67704 1.011283,0.67704 0.996212,0 v -5.19772 c 0.102069,-0.1617 -6.156769,-6.47329 -6.156769,-6.47329 z m 11.2847331,1.6975 4.028142,4.01433 h -4.028142 z m -7.5966065,3.2684 c -0.6500677,0.0139 -0.6500677,0.9794 0,0.99329 h 3.4731235 c 0.650068,-0.0139 0.650068,-0.9794 0,-0.99329 z m 0,2.98032 c -0.661898,0.003 -0.661898,0.99121 0,0.99376 h 9.4499115 c 0.661898,-0.003 0.661898,-0.99121 0,-0.99376 z m -2e-7,2.98079 c -0.7066136,-0.0451 -0.7066136,1.03642 0,0.99135 h 9.4499117 c 0.687302,0.0447 0.717442,-0.99743 0.0287,-0.99231 0,0 -6.3196093,9.6e-4 -9.4786117,9.6e-4 z m 12.0309197,1.4298 c -3.020159,0 -5.478679,2.45126 -5.478682,5.46253 -2e-6,3.01127 2.458519,5.464 5.478682,5.464 3.020162,0 5.478685,-2.45273 5.478682,-5.464 -3e-6,-3.01127 -2.458523,-5.46253 -5.478682,-5.46253 z m 0,0.99327 c 2.481765,0 4.483927,1.99481 4.483929,4.46926 2e-6,2.47447 -2.00216,4.47072 -4.483929,4.47072 -2.481769,0 -4.481985,-1.99625 -4.481983,-4.47072 3e-6,-2.47445 2.000217,-4.46926 4.481983,-4.46926 z m -12.0309195,0.55532 c -0.6677608,-0.003 -0.6677608,0.99705 0,0.99375 h 5.9621955 c 0.667761,0.003 0.667761,-0.99705 0,-0.99375 z m 14.5238835,1.92835 c -0.129315,-7.7e-4 -0.253863,0.0486 -0.347314,0.13775 l -2.855354,2.65778 -1.43546,-1.33422 c -0.485425,-0.46163 -1.174969,0.27355 -0.680519,0.72556 l 1.775963,1.6519 c 0.191495,0.17855 0.489023,0.17855 0.680518,0 l 3.194885,-2.97547 c 0.334399,-0.30474 0.120303,-0.86025 -0.332719,-0.8633 z m -14.5238835,1.05245 c -0.6785371,-0.0145 -0.6785371,1.00779 0,0.99329 h 3.4731235 c 0.678537,0.0145 0.678537,-1.00779 0,-0.99329 z"/></g><text x="0" y="41.458334" fill="#000000" font-size="5px" font-weight="bold" font-family="'Helvetica Neue', Helvetica, Arial-Unicode, Arial, Sans-serif">Created by ArtWorkLeaf</text><text x="0" y="46.458334" fill="#000000" font-size="5px" font-weight="bold" font-family="'Helvetica Neue', Helvetica, Arial-Unicode, Arial, Sans-serif">from the Noun Project</text></svg>