<svg xmlns="http://www.w3.org/2000/svg" xmlns:xlink="http://www.w3.org/1999/xlink" version="1.1" x="0px" y="0px" viewBox="0 0 32 40" enable-background="new 0 0 32 32" xml:space="preserve"><path d="M23,20c-1.2,0-2.266,0.542-3,1.382l-9.092-4.546C10.967,16.564,11,16.287,11,16s-0.033-0.566-0.091-0.836L20,10.618  C20.734,11.458,21.8,12,23,12c2.206,0,4-1.794,4-4s-1.794-4-4-4s-4,1.794-4,4c0,0.287,0.033,0.566,0.091,0.836L10,13.381  C9.266,12.542,8.2,12,7,12c-2.206,0-4,1.794-4,4s1.794,4,4,4c1.2,0,2.266-0.542,3-1.382l9.092,4.546C19.033,23.434,19,23.713,19,24  c0,2.206,1.794,4,4,4s4-1.794,4-4S25.206,20,23,20z"/><text x="0" y="47" fill="#000000" font-size="5px" font-weight="bold" font-family="'Helvetica Neue', Helvetica, Arial-Unicode, Arial, Sans-serif">Created by David Khai</text><text x="0" y="52" fill="#000000" font-size="5px" font-weight="bold" font-family="'Helvetica Neue', Helvetica, Arial-Unicode, Arial, Sans-serif">from the Noun Project</text></svg>