<svg xmlns="http://www.w3.org/2000/svg" xmlns:xlink="http://www.w3.org/1999/xlink" version="1.1" x="0px" y="0px" viewBox="0 0 32 40" style="enable-background:new 0 0 32 32;" xml:space="preserve"><style type="text/css">
	.st0{display:none;}
	.st1{display:inline;}
</style><g><path d="M28.86,28.55l-3.85-1.28c-0.22-0.07-0.45-0.05-0.66,0.05c-1.86,0.95-4.06,1.33-6.37,0.92c-2.15-0.39-4.07-1.49-5.51-3.05   c0.62-0.02,1.24-0.07,1.85-0.18c4.75-0.85,8.53-4.6,9.42-9.33c0.44-2.33,0.17-4.67-0.7-6.78c3.38,1.14,5.99,4.1,6.63,7.66   c0.42,2.32,0.02,4.53-0.94,6.4c-0.11,0.21-0.13,0.44-0.06,0.66l1.28,3.84C30.18,28.13,29.54,28.77,28.86,28.55z M22,15.35   c-0.75,3.99-3.99,7.19-7.99,7.91c-2.31,0.41-4.51,0.03-6.37-0.92c-0.2-0.1-0.44-0.13-0.66-0.05l-3.85,1.28   c-0.67,0.22-1.32-0.42-1.09-1.09l1.28-3.84c0.07-0.22,0.05-0.45-0.06-0.66c-0.96-1.87-1.36-4.07-0.94-6.4   c0.72-4.01,3.92-7.26,7.93-8C17.28,2.28,23.32,8.32,22,15.35z M13.69,15.64c0-0.49-0.4-0.89-0.89-0.89H7.82   c-0.49,0-0.89,0.4-0.89,0.89c0,0.49,0.4,0.89,0.89,0.89h4.98C13.29,16.53,13.69,16.13,13.69,15.64z M17.24,12.09   c0-0.49-0.4-0.89-0.89-0.89H7.82c-0.49,0-0.89,0.4-0.89,0.89c0,0.49,0.4,0.89,0.89,0.89h8.53C16.84,12.98,17.24,12.58,17.24,12.09z   "/></g><text x="0" y="47" fill="#000000" font-size="5px" font-weight="bold" font-family="'Helvetica Neue', Helvetica, Arial-Unicode, Arial, Sans-serif">Created by usamah abdul matin</text><text x="0" y="52" fill="#000000" font-size="5px" font-weight="bold" font-family="'Helvetica Neue', Helvetica, Arial-Unicode, Arial, Sans-serif">from the Noun Project</text></svg>