<svg xmlns="http://www.w3.org/2000/svg" xmlns:xlink="http://www.w3.org/1999/xlink" version="1.1" x="0px" y="0px" viewBox="0 0 512 640" enable-background="new 0 0 512 512" xml:space="preserve"><path d="M256,2C115.7,2,2,115.7,2,256c0,140.3,113.7,254,254,254s254-113.7,254-254C510,115.7,396.3,2,256,2z M216.6,78.2h78.9  c6.1,0,10.8,5.3,10.1,11.3l-23.1,208.3c-0.6,5.1-4.9,9-10.1,9h-32.6c-5.2,0-9.5-3.9-10.1-9L206.5,89.5  C205.8,83.5,210.5,78.2,216.6,78.2z M256,459.2c-28.1,0-50.8-22.7-50.8-50.8c0-28.1,22.7-50.8,50.8-50.8s50.8,22.7,50.8,50.8  C306.8,436.5,284.1,459.2,256,459.2z"/><text x="0" y="527" fill="#000000" font-size="5px" font-weight="bold" font-family="'Helvetica Neue', Helvetica, Arial-Unicode, Arial, Sans-serif">Created by ProSymbols</text><text x="0" y="532" fill="#000000" font-size="5px" font-weight="bold" font-family="'Helvetica Neue', Helvetica, Arial-Unicode, Arial, Sans-serif">from the Noun Project</text></svg>