<svg xmlns="http://www.w3.org/2000/svg" xmlns:xlink="http://www.w3.org/1999/xlink" version="1.1" x="0px" y="0px" viewBox="0 0 64 80" enable-background="new 0 0 64 64" xml:space="preserve"><g><path d="M53.992,51.454c-1.104,0-2-0.896-2-2s0.896-2,2-2h0.003c0-1.104,0.894-2,1.998-2s1.999,0.896,1.999,2   C57.992,49.66,56.198,51.454,53.992,51.454z"/></g><g><path d="M9.992,51.454c-2.206,0-4-1.794-4-4c0-1.104,0.896-2,2-2s2,0.896,2,2v0.003c1.104,0,2,0.894,2,1.998   C11.992,50.561,11.097,51.454,9.992,51.454z"/></g><g><path d="M7.991,18.545c-1.104,0-1.999-0.896-1.999-2c0-2.206,1.794-4,4-4c1.104,0,2,0.896,2,2s-0.896,2-2,2H9.99   C9.99,17.649,9.096,18.545,7.991,18.545z"/></g><g><path d="M55.992,18.545c-1.104,0-2-0.896-2-2v-0.002c-1.104,0-2-0.895-2-1.999s0.896-1.999,2-1.999c2.206,0,4,1.794,4,4   C57.992,17.649,57.097,18.545,55.992,18.545z"/></g><g><path d="M8.586,50.875c-0.61,0-1.213-0.278-1.605-0.805c-0.66-0.886-0.478-2.139,0.408-2.799l20.154-15.019   c0.888-0.661,2.14-0.476,2.799,0.408c0.66,0.886,0.478,2.139-0.408,2.799L9.779,50.479C9.42,50.746,9.001,50.875,8.586,50.875z"/></g><g><path d="M55.397,50.875c-0.415,0-0.834-0.129-1.193-0.396L34.05,35.46c-0.886-0.66-1.068-1.913-0.408-2.799   c0.659-0.884,1.911-1.069,2.799-0.408l20.154,15.019c0.886,0.66,1.068,1.913,0.408,2.799C56.61,50.597,56.008,50.875,55.397,50.875   z"/></g><g><path d="M55.992,49.454c-1.104,0-2-0.896-2-2V16.545c0-1.104,0.896-2,2-2s2,0.896,2,2v30.909   C57.992,48.559,57.097,49.454,55.992,49.454z"/></g><g><path d="M53.992,51.454h-44c-1.104,0-2-0.896-2-2s0.896-2,2-2h44c1.104,0,2,0.896,2,2S55.097,51.454,53.992,51.454z"/></g><g><path d="M7.992,49.454c-1.104,0-2-0.896-2-2V16.545c0-1.104,0.896-2,2-2s2,0.896,2,2v30.909   C9.992,48.559,9.097,49.454,7.992,49.454z"/></g><g><path d="M53.992,16.545h-44c-1.104,0-2-0.896-2-2s0.896-2,2-2h44c1.104,0,2,0.896,2,2S55.097,16.545,53.992,16.545z"/></g><g><path d="M31.992,36.91c-1.705,0-3.411-0.575-4.803-1.725c-0.852-0.704-0.971-1.965-0.268-2.816c0.704-0.853,1.966-0.97,2.816-0.268   c1.305,1.08,3.202,1.079,4.507,0.001c0.852-0.704,2.111-0.586,2.815,0.267c0.704,0.852,0.585,2.112-0.267,2.815   C35.403,36.335,33.697,36.91,31.992,36.91z"/></g><g><path d="M35.521,35.644c-0.576,0-1.147-0.247-1.543-0.726c-0.703-0.852-0.583-2.112,0.268-2.816l20.473-16.917   c0.851-0.702,2.112-0.585,2.816,0.268c0.703,0.852,0.583,2.112-0.268,2.816L36.794,35.186   C36.421,35.493,35.97,35.644,35.521,35.644z"/></g><g><path d="M28.463,35.644c-0.449,0-0.9-0.15-1.273-0.458L6.718,18.269c-0.851-0.704-0.971-1.965-0.268-2.816   c0.703-0.853,1.965-0.97,2.816-0.268l20.472,16.917c0.851,0.704,0.971,1.965,0.268,2.816C29.61,35.396,29.039,35.644,28.463,35.644   z"/></g><text x="0" y="79" fill="#000000" font-size="5px" font-weight="bold" font-family="'Helvetica Neue', Helvetica, Arial-Unicode, Arial, Sans-serif">Created by alkhalifi_design</text><text x="0" y="84" fill="#000000" font-size="5px" font-weight="bold" font-family="'Helvetica Neue', Helvetica, Arial-Unicode, Arial, Sans-serif">from the Noun Project</text></svg>