<svg xmlns="http://www.w3.org/2000/svg" xmlns:xlink="http://www.w3.org/1999/xlink" viewBox="0 0 24 30" version="1.1" x="0px" y="0px"><title>Bold/Fullscreen</title><desc>Created with Sketch.</desc><g stroke="none" stroke-width="1" fill="none" fill-rule="evenodd"><g fill-rule="nonzero"><rect x="0" y="0" width="24" height="24"/><path d="M9,3 L9,5 L5,5 L5,9 L3,9 L3,3 L9,3 Z M3,15 L5.00463867,15 L5.00463867,19 L9,19 L9,21 L3,21 L3,15 Z M15,3 L21,3 L21,9 L19,9 L19,5 L15,5 L15,3 Z M19,15 L21,15 L21,21 L15,21 L15,19 L19,19 L19,15 Z" fill="#000000"/></g></g><text x="0" y="39" fill="#000000" font-size="5px" font-weight="bold" font-family="'Helvetica Neue', Helvetica, Arial-Unicode, Arial, Sans-serif">Created by Alex Chamorro</text><text x="0" y="44" fill="#000000" font-size="5px" font-weight="bold" font-family="'Helvetica Neue', Helvetica, Arial-Unicode, Arial, Sans-serif">from the Noun Project</text></svg>