<svg xmlns="http://www.w3.org/2000/svg" xmlns:xlink="http://www.w3.org/1999/xlink" version="1.1" x="0px" y="0px" viewBox="0 0 100 125" enable-background="new 0 0 100 100" xml:space="preserve"><polygon points="69.496,55.834 62.371,48.666 58.963,52.072 69.496,62.604 84.346,47.799 80.941,44.391 "/><path d="M71.654,29.757c-9.318,0-17.377,5.41-21.262,13.242c-3.883-7.832-11.941-13.242-21.26-13.242  c-13.092,0-23.74,10.648-23.74,23.74s10.648,23.74,23.74,23.74c9.318,0,17.377-5.41,21.26-13.242  c3.885,7.832,11.943,13.242,21.262,13.242c13.092,0,23.74-10.648,23.74-23.74S84.746,29.757,71.654,29.757z M39.73,60.667  l-3.404,3.408l-7.172-7.217l-7.215,7.217l-3.406-3.408l7.217-7.168l-7.127-7.172l3.408-3.408l7.123,7.17l7.172-7.17l3.404,3.408  l-7.213,7.172L39.73,60.667z M71.654,71.237c-9.781,0-17.74-7.957-17.74-17.74s7.959-17.74,17.74-17.74  c9.783,0,17.74,7.957,17.74,17.74S81.438,71.237,71.654,71.237z"/><text x="0" y="115" fill="#000000" font-size="5px" font-weight="bold" font-family="'Helvetica Neue', Helvetica, Arial-Unicode, Arial, Sans-serif">Created by Vicons Design</text><text x="0" y="120" fill="#000000" font-size="5px" font-weight="bold" font-family="'Helvetica Neue', Helvetica, Arial-Unicode, Arial, Sans-serif">from the Noun Project</text></svg>