<svg xmlns="http://www.w3.org/2000/svg" xmlns:xlink="http://www.w3.org/1999/xlink" xml:space="preserve" version="1.1" style="shape-rendering:geometricPrecision;text-rendering:geometricPrecision;image-rendering:optimizeQuality;" viewBox="0 0 746 932.5" x="0px" y="0px" fill-rule="evenodd" clip-rule="evenodd"><defs><style type="text/css">
   
    .fil0 {fill:black}
   
  </style></defs><g><path class="fil0" d="M373 0c44,0 79,36 79,79l0 215 215 0c43,0 79,35 79,79 0,44 -36,79 -79,79l-215 0 0 215c0,43 -35,79 -79,79 -44,0 -79,-36 -79,-79l0 -215 -215 0c-43,0 -79,-35 -79,-79 0,-44 36,-79 79,-79l215 0 0 -215c0,-43 35,-79 79,-79z"/></g><text x="0" y="761" fill="#000000" font-size="5px" font-weight="bold" font-family="'Helvetica Neue', Helvetica, Arial-Unicode, Arial, Sans-serif">Created by uzeir syarief</text><text x="0" y="766" fill="#000000" font-size="5px" font-weight="bold" font-family="'Helvetica Neue', Helvetica, Arial-Unicode, Arial, Sans-serif">from the Noun Project</text></svg>