<svg xmlns="http://www.w3.org/2000/svg" xmlns:xlink="http://www.w3.org/1999/xlink" version="1.1" x="0px" y="0px" viewBox="0 0 90 112.5" enable-background="new 0 0 90 90" xml:space="preserve"><path d="M29.719,37.377l-3.287,0.885c-1.4,0.377-1.963-1.729-0.563-2.104l3.281-0.881C30.209,34.996,30.693,37.117,29.719,37.377z   M28.021,31.065L24.74,31.94c-1.328,0.354-1.902-1.744-0.563-2.1l3.281-0.88C28.521,28.674,29.01,30.799,28.021,31.065z   M26.328,24.737l-3.281,0.88c-1.334,0.358-1.928-1.729-0.563-2.099l3.281-0.88C26.906,22.331,27.287,24.481,26.328,24.737z   M24.635,18.419l-3.275,0.874c-1.369,0.328-1.916-1.698-0.563-2.104l3.275-0.876C25.135,16.029,25.625,18.153,24.635,18.419z   M46.109,13.881l2.219,3.506l-3.781,0.328L46.109,13.881z M29.969,6.706L18.609,9.752c-1.516,0.406-2.328,2.047-1.928,3.547  l6.824,25.462H22.4c-1.604,0-2.826,1.396-2.826,2.953v4.564c0,0.947,0.457,1.832,1.176,2.379h49.859  c0.719-0.547,1.172-1.432,1.172-2.379v-4.564c0-1.557-1.219-2.953-2.818-2.953h-2.594l2.043-17.426l1.51,0.177l-1.678,14.306  c-0.338,2.172,2.965,2.559,3.137,0.371l1.854-15.884c0.104-0.865-0.51-1.658-1.375-1.762l-3.084-0.364l0.24-2.016  c0.063-0.594-0.354-1.131-0.943-1.203l-8.816-1.041c-0.559-0.011-1.037,0.405-1.1,0.962l-2.797,23.88H53.1l-1.793-20.259  c0.068-0.36-0.051-0.725-0.313-0.979l-4.172-6.599c-0.641-1.004-1.551-0.744-1.926,0.171l-3.043,7.453  c-0.063,0.161-0.094,0.333-0.078,0.511l1.74,19.703h-2.078L33.416,8.815C32.906,6.924,31.563,6.278,29.969,6.706z"/><path d="M29.104,53.373c0.646-0.016,1.193,0.469,1.256,1.107l2.916,26.094c0.324,1.738-2.379,2.031-2.438,0.266l-2.922-26.088  C27.828,54.033,28.381,53.393,29.104,53.373z M22.979,50.998l3.594,31.639c0.115,1.021,0.756,1.855,1.693,1.855h34.828  c0.938,0,1.578-0.834,1.693-1.855l3.588-31.639H22.979z"/><path d="M59.912,12.138l8.188,0.968l0.307-2.635c0.068-0.594-0.354-1.131-0.947-1.203l-6.031-0.709  c-0.703-0.084-1.152,0.453-1.178,0.697L59.912,12.138z"/><text x="0" y="105" fill="#000000" font-size="5px" font-weight="bold" font-family="'Helvetica Neue', Helvetica, Arial-Unicode, Arial, Sans-serif">Created by Cuputo</text><text x="0" y="110" fill="#000000" font-size="5px" font-weight="bold" font-family="'Helvetica Neue', Helvetica, Arial-Unicode, Arial, Sans-serif">from the Noun Project</text></svg>