<svg xmlns="http://www.w3.org/2000/svg" data-name="Layer 1" viewBox="0 0 250 312.5" x="0px" y="0px"><title>Arrow</title><path d="M94.14,63.14a9.49,9.49,0,0,0-9.62,9.07,9.25,9.25,0,0,0,9.25,9.43h49.4a5.17,5.17,0,0,1,3.66,8.83l-81.2,81.2a9.49,9.49,0,0,0-.38,13.22,9.18,9.18,0,0,0,6.58,2.83h.08A9.18,9.18,0,0,0,78.45,185l81.46-81.45a5.17,5.17,0,0,1,8.84,3.66v49.39a9.16,9.16,0,0,0,2.77,6.6,9.07,9.07,0,0,0,6.65,2.65,9.5,9.5,0,0,0,9.08-9.62V72.41A9.29,9.29,0,0,0,178,63.14Z"/><text x="0" y="265" fill="#000000" font-size="5px" font-weight="bold" font-family="'Helvetica Neue', Helvetica, Arial-Unicode, Arial, Sans-serif">Created by Mustofa Bayu</text><text x="0" y="270" fill="#000000" font-size="5px" font-weight="bold" font-family="'Helvetica Neue', Helvetica, Arial-Unicode, Arial, Sans-serif">from the Noun Project</text></svg>