<svg xmlns="http://www.w3.org/2000/svg" viewBox="0 0 64 80" x="0px" y="0px"><title>Survey and Rating</title><path d="M23.87,31.29a8.2,8.2,0,0,1-11.58,0,2,2,0,0,0-2.83,2.82,12.19,12.19,0,0,0,17.24,0,2,2,0,0,0-2.83-2.82Z"/><circle cx="11.71" cy="24.08" r="2"/><circle cx="24.74" cy="24.08" r="2"/><path d="M45.92,17.84a18.06,18.06,0,0,0-11,3.73,18.09,18.09,0,1,0-5.89,20.87,18.08,18.08,0,1,0,16.87-24.6ZM28.56,37.48a14.08,14.08,0,1,1,3.35-12,2.93,2.93,0,0,0,.05.29,13.85,13.85,0,0,1,.2,2.34A14.06,14.06,0,0,1,28.56,37.48Zm24-7.56a2,2,0,1,1-2,2A2,2,0,0,1,52.58,29.92Zm-13,0a2,2,0,1,1-2,2A2,2,0,0,1,39.55,29.92Zm15,15a2,2,0,0,1-2.83,0,8.2,8.2,0,0,0-11.58,0,2,2,0,0,1-2.83-2.83,12.21,12.21,0,0,1,17.24,0A2,2,0,0,1,54.54,44.94Z"/><text x="0" y="79" fill="#000000" font-size="5px" font-weight="bold" font-family="'Helvetica Neue', Helvetica, Arial-Unicode, Arial, Sans-serif">Created by ghayn</text><text x="0" y="84" fill="#000000" font-size="5px" font-weight="bold" font-family="'Helvetica Neue', Helvetica, Arial-Unicode, Arial, Sans-serif">from the Noun Project</text></svg>