<svg width="38" height="47" viewBox="0 0 38 47" fill="none" xmlns="http://www.w3.org/2000/svg">
<path d="M15.895 3.74001C9.19253 3.74001 3.73999 9.19292 3.73999 15.895C3.73999 22.5971 9.19253 28.05 15.895 28.05C18.2321 28.05 20.4159 27.3854 22.2709 26.238L28.8713 32.8387C29.4012 33.3683 30.1058 33.66 30.855 33.66C31.6041 33.66 32.3083 33.3683 32.8383 32.8387C33.3682 32.3091 33.66 31.6041 33.66 30.855C33.66 30.1059 33.3682 29.4013 32.8383 28.8717L26.2376 22.2709C27.3854 20.4159 28.05 18.2321 28.05 15.895C28.05 9.19292 22.5974 3.74001 15.895 3.74001ZM15.895 24.31C11.2551 24.31 7.47999 20.5352 7.47999 15.895C7.47999 11.2548 11.2551 7.48 15.895 7.48C20.5348 7.48 24.31 11.2548 24.31 15.895C24.31 20.5352 20.5348 24.31 15.895 24.31Z" fill="black"/>
<path d="M9.34998 15.895H11.22C11.22 13.317 13.317 11.22 15.895 11.22V9.35001C12.2862 9.35001 9.34998 12.2863 9.34998 15.895Z" fill="black"/>
</svg>